<?xml version="1.0" encoding="iso-8859-1"?>
<!-- Generator: Adobe Illustrator 19.0.0, SVG Export Plug-In . SVG Version: 6.00 Build 0)  -->
<svg version="1.1" id="Layer_1" xmlns="http://www.w3.org/2000/svg" xmlns:xlink="http://www.w3.org/1999/xlink" x="0px" y="0px"
	 viewBox="0 0 512 512" style="enable-background:new 0 0 512 512;" xml:space="preserve">
<path style="fill:#FFC36E;" d="M469.789,153.386H42.232c-18.891,0-34.205,15.314-34.205,34.205v273.637
	c0,18.891,15.314,34.205,34.205,34.205h427.557c18.891,0,34.205-15.314,34.205-34.205V187.591
	C503.994,168.7,488.681,153.386,469.789,153.386z"/>
<path style="fill:#FFB464;" d="M503.908,185.287c-0.589-8.847-4.539-16.769-10.587-22.508c0.062,0.088,0.124,0.176,0.193,0.244
	L313.508,324.409H198.515L18.507,163.023c0.045-0.044,0.077-0.113,0.115-0.169c-6.004,5.732-9.923,13.624-10.509,22.433
	l177.691,159.309L23.714,489.919c5.344,3.456,11.681,5.513,18.519,5.513H469.79c6.838,0,13.174-2.057,18.518-5.512l-162.09-145.322
	L503.908,185.287z"/>
<path style="fill:#FFD782;" d="M469.789,153.386h-94.06H136.295H42.232c-9.23,0-17.572,3.695-23.725,9.637L221.29,344.829
	c19.757,17.714,49.682,17.714,69.441,0l202.783-181.806C487.362,157.081,479.02,153.386,469.789,153.386z"/>
<path style="fill:#FFC36E;" d="M129.881,153.386h-16.773c8.885,71.087,69.409,126.129,142.903,126.129
	s134.019-55.043,142.903-126.129h-16.771H129.881z"/>
<circle style="fill:#EFF2FA;" cx="256.011" cy="136.284" r="119.716"/>
<path style="fill:#AFB9D2;" d="M330.999,119.182h-17.641c-2.709-9.094-7.532-17.255-13.884-23.973l8.842-15.315
	c-4.144-3.838-8.728-7.317-13.825-10.26c-5.098-2.944-10.401-5.172-15.797-6.842l-8.839,15.308
	c-4.451-1.056-9.071-1.674-13.844-1.674c-4.774,0-9.393,0.618-13.844,1.674l-8.839-15.308c-5.396,1.67-10.7,3.899-15.797,6.842
	s-9.681,6.422-13.825,10.26l8.842,15.315c-6.35,6.718-11.175,14.879-13.884,23.973h-17.641c-1.252,5.508-1.973,11.216-1.973,17.102
	c0,5.886,0.721,11.594,1.973,17.102h17.641c2.709,9.094,7.532,17.255,13.884,23.972l-8.842,15.315
	c4.144,3.837,8.728,7.317,13.825,10.259s10.401,5.172,15.797,6.843l8.839-15.308c4.451,1.056,9.071,1.674,13.844,1.674
	c4.774,0,9.393-0.618,13.844-1.674l8.839,15.308c5.396-1.671,10.7-3.899,15.797-6.843c5.098-2.944,9.681-6.422,13.825-10.259
	l-8.842-15.315c6.351-6.718,11.175-14.878,13.884-23.973h17.641c1.252-5.508,1.973-11.216,1.973-17.102
	S332.25,124.69,330.999,119.182z M256.011,161.937c-14.168,0-25.653-11.485-25.653-25.653c0-14.168,11.485-25.653,25.653-25.653
	s25.653,11.485,25.653,25.653C281.664,150.452,270.179,161.937,256.011,161.937z"/>
<path style="fill:#C7CFE2;" d="M256.011,84.443c-28.631,0-51.841,23.21-51.841,51.841s23.21,51.841,51.841,51.841
	s51.841-23.21,51.841-51.841S284.642,84.443,256.011,84.443z M256.011,161.937c-14.168,0-25.653-11.485-25.653-25.653
	c0-14.168,11.485-25.653,25.653-25.653s25.653,11.485,25.653,25.653C281.664,150.452,270.179,161.937,256.011,161.937z"/>
<path d="M469.779,145.37h-86.373c0.212-3.003,0.327-6.031,0.327-9.086c0-70.433-57.3-127.733-127.733-127.733
	s-127.733,57.3-127.733,127.733c0,3.055,0.114,6.083,0.327,9.086H42.221C18.941,145.37,0,164.31,0,187.591v273.637
	c0,23.28,18.941,42.221,42.221,42.221h427.557c23.28,0,42.221-18.941,42.221-42.221V187.591
	C512,164.31,493.059,145.37,469.779,145.37z M256,24.585c61.592,0,111.699,50.108,111.699,111.699S317.592,247.983,256,247.983
	s-111.699-50.108-111.699-111.699S194.408,24.585,256,24.585z M130.753,161.403c11.702,58.444,63.41,102.614,125.247,102.614
	s113.544-44.17,125.247-102.614h88.532c3.808,0,7.427,0.824,10.695,2.293L284.898,339.04c-16.474,14.77-41.321,14.771-57.796,0
	L31.525,163.697c3.269-1.47,6.887-2.294,10.696-2.294H130.753z M16.033,187.591c0-4.767,1.287-9.237,3.522-13.093l171.977,154.187
	L23.408,479.417c-4.56-4.715-7.374-11.128-7.374-18.189V187.591z M42.221,487.415c-1.172,0-2.323-0.086-3.454-0.235l164.774-147.729
	l12.857,11.527c11.289,10.12,25.445,15.18,39.601,15.18c14.156,0,28.313-5.06,39.6-15.18l12.857-11.527L473.232,487.18
	c-1.131,0.15-2.282,0.235-3.454,0.235H42.221z M495.967,461.228c0,7.062-2.814,13.474-7.374,18.19L320.467,328.685l171.977-154.187
	c2.235,3.854,3.522,8.325,3.522,13.093L495.967,461.228L495.967,461.228z"/>
<path d="M192.967,161.403c2.418,6.034,5.724,11.739,9.78,16.878l-5.995,10.385c-1.872,3.242-1.251,7.348,1.495,9.89
	c4.772,4.419,9.908,8.227,15.264,11.32c5.355,3.092,11.222,5.635,17.436,7.558c3.577,1.107,7.442-0.408,9.313-3.65l5.986-10.366
	c6.575,0.984,12.935,0.984,19.509,0l5.986,10.366c1.461,2.531,4.138,4.009,6.944,4.009c0.788,0,1.586-0.117,2.37-0.359
	c6.213-1.923,12.08-4.466,17.436-7.558c5.356-3.092,10.491-6.901,15.264-11.32c2.746-2.543,3.367-6.649,1.495-9.89l-5.995-10.384
	c4.055-5.138,7.363-10.844,9.78-16.878h11.956c3.743,0,6.988-2.59,7.817-6.24c1.442-6.343,2.172-12.694,2.172-18.879
	s-0.731-12.536-2.172-18.879c-0.829-3.65-4.075-6.24-7.817-6.24h-11.958c-2.418-6.034-5.725-11.74-9.78-16.878l5.995-10.384
	c1.872-3.242,1.251-7.347-1.495-9.889c-4.772-4.419-9.906-8.228-15.264-11.321c-5.356-3.093-11.223-5.635-17.436-7.558
	c-3.58-1.105-7.442,0.409-9.312,3.65l-5.986,10.366c-6.575-0.984-12.935-0.984-19.509,0l-5.986-10.366
	c-1.872-3.241-5.737-4.754-9.312-3.65c-6.213,1.923-12.08,4.466-17.436,7.558c-5.357,3.093-10.492,6.902-15.264,11.321
	c-2.746,2.543-3.367,6.649-1.495,9.889l5.995,10.385c-4.055,5.138-7.363,10.844-9.78,16.878h-11.956c-3.743,0-6.988,2.59-7.817,6.24
	c-1.441,6.341-2.172,12.692-2.172,18.877c0,6.185,0.731,12.536,2.172,18.879c0.829,3.65,4.075,6.24,7.817,6.24H192.967z
	 M187.691,127.198h10.963c3.546,0,6.671-2.33,7.683-5.728c2.285-7.674,6.444-14.85,12.026-20.755
	c2.435-2.576,2.889-6.445,1.117-9.515l-5.503-9.531c2.445-1.898,4.97-3.602,7.551-5.092c2.58-1.49,5.319-2.825,8.186-3.993
	l5.499,9.525c1.771,3.069,5.348,4.609,8.793,3.791c4.077-0.967,8.112-1.457,11.994-1.457c3.882,0,7.917,0.49,11.994,1.457
	c3.447,0.819,7.022-0.725,8.793-3.791l5.499-9.525c2.868,1.168,5.605,2.503,8.186,3.993c2.58,1.49,5.106,3.194,7.551,5.092
	L292.52,91.2c-1.772,3.07-1.318,6.94,1.117,9.516c5.582,5.904,9.74,13.08,12.025,20.754c1.012,3.398,4.138,5.728,7.683,5.728h10.963
	c0.422,3.068,0.635,6.106,0.635,9.086s-0.213,6.018-0.635,9.086h-10.961c-3.546,0-6.671,2.33-7.683,5.728
	c-2.285,7.674-6.443,14.85-12.025,20.754c-2.436,2.576-2.89,6.447-1.117,9.516l5.503,9.531c-2.446,1.898-4.97,3.602-7.551,5.092
	c-2.58,1.49-5.319,2.825-8.186,3.993l-5.499-9.524c-1.455-2.519-4.124-4.008-6.941-4.008c-0.614,0-1.235,0.071-1.851,0.217
	c-4.077,0.967-8.112,1.457-11.994,1.457c-3.882,0-7.917-0.49-11.994-1.457c-3.448-0.821-7.022,0.724-8.793,3.791l-5.499,9.524
	c-2.868-1.168-5.605-2.503-8.186-3.993c-2.581-1.49-5.106-3.194-7.551-5.092l5.503-9.531c1.772-3.071,1.318-6.94-1.117-9.516
	c-5.582-5.903-9.74-13.08-12.025-20.754c-1.012-3.398-4.138-5.728-7.683-5.728h-10.963c-0.422-3.068-0.635-6.106-0.635-9.086
	C187.059,133.304,187.269,130.266,187.691,127.198z"/>
<path d="M256,169.954c18.566,0,33.67-15.105,33.67-33.67c0-18.566-15.105-33.67-33.67-33.67s-33.67,15.105-33.67,33.67
	C222.33,154.85,237.434,169.954,256,169.954z M256,118.647c9.725,0,17.637,7.912,17.637,17.637s-7.912,17.637-17.637,17.637
	s-17.637-7.912-17.637-17.637C238.363,126.559,246.275,118.647,256,118.647z"/>
<g>
</g>
<g>
</g>
<g>
</g>
<g>
</g>
<g>
</g>
<g>
</g>
<g>
</g>
<g>
</g>
<g>
</g>
<g>
</g>
<g>
</g>
<g>
</g>
<g>
</g>
<g>
</g>
<g>
</g>
</svg>
